<?xml version="1.0" encoding="UTF-8"?>
<svg version="1.1" xmlns="http://www.w3.org/2000/svg" width="1080" height="1080">
<path d="M0 0 C0.64001953 0.28327148 1.28003906 0.56654297 1.93945312 0.85839844 C16.43406572 7.32028238 29.21856563 16.31382988 40 28 C40.80695313 28.80050781 41.61390625 29.60101563 42.4453125 30.42578125 C49.27779198 37.31049681 54.6853593 44.75360943 59.625 53.0625 C60.07512451 53.81305664 60.52524902 54.56361328 60.98901367 55.33691406 C62.06088433 57.18673149 63.03966182 59.08990005 64 61 C63.67 61.66 63.34 62.32 63 63 C60.54585021 63.53570737 58.1664004 63.94593149 55.68359375 64.2890625 C54.58701195 64.45128799 54.58701195 64.45128799 53.46827698 64.61679077 C51.12583118 64.96133384 48.78179342 65.29328524 46.4375 65.625 C44.85209313 65.85594573 43.26680468 66.08770601 41.68164062 66.3203125 C37.78907325 66.88968016 33.89503254 67.4477593 30 68 C29.40977051 67.12754639 28.81954102 66.25509277 28.21142578 65.35620117 C27.41460858 64.18913975 26.6175583 63.02223743 25.8203125 61.85546875 C25.24083862 60.9968927 25.24083862 60.9968927 24.6496582 60.12097168 C11.49120922 40.92759806 -9.59875595 29.03886483 -32.15625 24.48828125 C-57.5992489 20.11963446 -83.03091467 24.85898684 -104.4375 39.5625 C-125.20523417 55.35556769 -138.44117625 76.94880725 -142.6171875 102.82421875 C-144.27572802 117.51389622 -142.58804197 134.23506624 -136.3046875 147.6953125 C-135 151 -135 151 -135.07714844 153.00439453 C-136.4723207 156.02136228 -138.53662731 156.73744507 -141.4609375 158.234375 C-143.12769531 159.09482422 -143.12769531 159.09482422 -144.828125 159.97265625 C-146.58382812 160.85244141 -146.58382812 160.85244141 -148.375 161.75 C-149.53773438 162.35199219 -150.70046875 162.95398438 -151.8984375 163.57421875 C-160.56935587 168 -160.56935587 168 -164 168 C-167.33504014 159.68368714 -169.77331183 151.36226933 -171.75 142.625 C-171.96035889 141.69864746 -172.17071777 140.77229492 -172.38745117 139.81787109 C-179.28734345 108.41983367 -175.22419281 75.38517266 -158 48 C-137.74582264 17.34170115 -104.29285144 -1.86755729 -68.765625 -9.14453125 C-45.24977602 -13.17846717 -21.52816552 -9.87936363 0 0 Z " fill="#FFFFFF" transform="translate(290,468)"/>
<path d="M0 0 C-1.49384632 4.00322452 -3.63479408 5.27572787 -7.30078125 7.328125 C-8.40856934 7.95493164 -9.51635742 8.58173828 -10.65771484 9.22753906 C-11.87580845 9.90199642 -13.09407499 10.57614153 -14.3125 11.25 C-15.57289621 11.95717466 -16.83281715 12.66519699 -18.09228516 13.37402344 C-21.39401886 15.22787467 -24.70358224 17.06722158 -28.01629639 18.90136719 C-29.94830735 19.9713711 -31.87891264 21.0438658 -33.80908203 22.1171875 C-41.08685634 26.16230155 -48.37919096 30.18028707 -55.68164062 34.18066406 C-58.71228369 35.8422556 -61.73948649 37.50991128 -64.765625 39.1796875 C-74.79960414 44.7030285 -84.90336841 50.0860529 -95.0625 55.375 C-96.15643066 55.94621582 -97.25036133 56.51743164 -98.37744141 57.10595703 C-122.78832225 69.74631459 -122.78832225 69.74631459 -131 68 C-139.34125979 65.24889173 -145.00361755 60.17556968 -149.375 52.625 C-151.28271196 44.61260979 -151.72257835 37.56523987 -148 30 C-143.24970972 23.24077639 -138.4755014 18.93706171 -130.21386719 17.20727539 C-128.74304626 16.99341467 -127.2705309 16.79101832 -125.796875 16.59765625 C-124.96216675 16.4789769 -124.1274585 16.36029755 -123.26745605 16.23802185 C-120.42956996 15.83652394 -117.58987573 15.44965471 -114.75 15.0625 C-111.61655957 14.62420312 -108.4836542 14.18220722 -105.35076904 13.73995972 C-103.00169133 13.40848314 -100.65244036 13.07823273 -98.30303955 12.74905396 C-88.03415149 11.30477893 -77.77662505 9.78856023 -67.52031708 8.25771904 C-61.91063599 7.42099193 -56.30030251 6.58864521 -50.69006729 5.75564289 C-45.99773533 5.05853295 -41.30580712 4.35888587 -36.61462402 3.65408325 C-32.13407276 2.98118121 -27.65246462 2.31579794 -23.16999817 1.65577888 C-21.49529631 1.40780274 -19.82099989 1.1570715 -18.1471405 0.90347099 C-15.83899822 0.55412677 -13.52963479 0.21439239 -11.21972656 -0.12304688 C-9.91666565 -0.31733276 -8.61360474 -0.51161865 -7.27105713 -0.71179199 C-4.42909528 -0.96219305 -2.64834272 -0.94870681 0 0 Z " fill="#FFFFFF" transform="translate(368,538)"/>
<path d="M0 0 C11.405625 -0.0825 22.81125 -0.165 34.5625 -0.25 C39.94864624 -0.30462402 39.94864624 -0.30462402 45.44360352 -0.36035156 C49.85534668 -0.37841797 49.85534668 -0.37841797 51.92588806 -0.3817749 C53.36063103 -0.38788535 54.79535447 -0.40188746 56.22996521 -0.42230225 C71.3220102 -0.62618089 71.3220102 -0.62618089 77 4 C81.97985238 10.09728266 81.63553246 16.30345972 81.5625 23.9375 C81.59827148 25.64969727 81.59827148 25.64969727 81.63476562 27.39648438 C81.62257576 34.4300367 81.01110731 39.77788985 76 45 C71.25626203 48.3505198 66.26093103 48.69761445 60.625 49.1875 C59.37783203 49.3102832 59.37783203 49.3102832 58.10546875 49.43554688 C56.07131913 49.63428563 54.03577051 49.81861584 52 50 C59.17170679 59.311393 59.17170679 59.311393 69.42578125 64.0859375 C73.35137266 64.47579326 76.98861615 64.17440799 81 64 C81 69.28 81 74.56 81 80 C72.78515249 82.06518513 65.08012978 83.06651707 57 80 C49.43384125 74.85869104 43.32156027 67.59290969 37.33154297 60.75927734 C36.71905701 60.07239334 36.10657104 59.38550934 35.4755249 58.67781067 C34.32188866 57.37030418 33.19260773 56.04073197 32.09381104 54.68681335 C27.05928635 48.90966866 25.75881039 49.87588104 17 49 C17 59.23 17 69.46 17 80 C11.39 80 5.78 80 0 80 C0 53.6 0 27.2 0 0 Z M17 17 C17 21.95 17 26.9 17 32 C32.51 32 48.02 32 64 32 C64 27.05 64 22.1 64 17 C48.49 17 32.98 17 17 17 Z " fill="#FF3131" transform="translate(385,458)"/>
<path d="M0 0 C1.02456299 -0.00021904 1.02456299 -0.00021904 2.06982422 -0.0004425 C4.33157507 0.00025517 6.59324397 0.00804074 8.85498047 0.01586914 C10.42153885 0.01773384 11.98809781 0.0191575 13.55465698 0.02015686 C17.68106695 0.02397796 21.80744181 0.03380479 25.93383789 0.04486084 C30.14322434 0.05508369 34.35261644 0.05965636 38.56201172 0.06469727 C46.82374839 0.07542741 55.08544977 0.09302094 63.34716797 0.11352539 C63.34716797 5.72352539 63.34716797 11.33352539 63.34716797 17.11352539 C42.22716797 17.11352539 21.10716797 17.11352539 -0.65283203 17.11352539 C-0.65283203 22.06352539 -0.65283203 27.01352539 -0.65283203 32.11352539 C20.46716797 32.11352539 41.58716797 32.11352539 63.34716797 32.11352539 C63.34716797 37.72352539 63.34716797 43.33352539 63.34716797 49.11352539 C42.22716797 49.11352539 21.10716797 49.11352539 -0.65283203 49.11352539 C-0.65283203 54.06352539 -0.65283203 59.01352539 -0.65283203 64.11352539 C20.46716797 64.11352539 41.58716797 64.11352539 63.34716797 64.11352539 C63.34716797 69.39352539 63.34716797 74.67352539 63.34716797 80.11352539 C54.32394191 80.20400124 45.30101858 80.27734174 36.27744102 80.32077408 C32.08713259 80.34162257 27.89715138 80.36988955 23.70703125 80.4152832 C19.66104555 80.45883959 15.61537402 80.48268309 11.56917191 80.49303436 C10.02781862 80.50040825 8.48648195 80.51480796 6.94526291 80.53644562 C4.78116861 80.5656115 2.61836172 80.56947615 0.45410156 80.56762695 C-0.77611725 80.5765094 -2.00633606 80.58539185 -3.27383423 80.59454346 C-8.46111018 79.85610751 -11.5163346 77.37288741 -14.96533203 73.55102539 C-17.50953605 69.87606404 -17.78328187 67.0867609 -17.81396484 62.72753906 C-17.82357239 61.6259697 -17.83317993 60.52440033 -17.84307861 59.38945007 C-17.84945343 57.60351189 -17.84945343 57.60351189 -17.85595703 55.78149414 C-17.8616571 54.55699051 -17.86735718 53.33248688 -17.87322998 52.07087708 C-17.88268316 49.47759873 -17.88921522 46.88430834 -17.89306641 44.29101562 C-17.90276762 40.32734159 -17.93378725 36.36418697 -17.96533203 32.40063477 C-17.97186252 29.88175764 -17.97711281 27.3628768 -17.98095703 24.84399414 C-17.99330383 23.65944138 -18.00565063 22.47488861 -18.01837158 21.25444031 C-18.00053062 14.64960125 -17.8490223 9.53743405 -13.11767578 4.46899414 C-8.23324943 0.73384457 -6.14342796 -0.01100973 0 0 Z " fill="#FF3131" transform="translate(930.65283203125,457.886474609375)"/>
<path d="M0 0 C1.02456299 -0.00021904 1.02456299 -0.00021904 2.06982422 -0.0004425 C4.33157507 0.00025517 6.59324397 0.00804074 8.85498047 0.01586914 C10.42153885 0.01773384 11.98809781 0.0191575 13.55465698 0.02015686 C17.68106695 0.02397796 21.80744181 0.03380479 25.93383789 0.04486084 C30.14322434 0.05508369 34.35261644 0.05965636 38.56201172 0.06469727 C46.82374839 0.07542741 55.08544977 0.09302094 63.34716797 0.11352539 C63.34716797 5.72352539 63.34716797 11.33352539 63.34716797 17.11352539 C42.22716797 17.11352539 21.10716797 17.11352539 -0.65283203 17.11352539 C-0.65283203 22.06352539 -0.65283203 27.01352539 -0.65283203 32.11352539 C20.46716797 32.11352539 41.58716797 32.11352539 63.34716797 32.11352539 C63.34716797 37.72352539 63.34716797 43.33352539 63.34716797 49.11352539 C42.22716797 49.11352539 21.10716797 49.11352539 -0.65283203 49.11352539 C-0.65283203 54.06352539 -0.65283203 59.01352539 -0.65283203 64.11352539 C20.46716797 64.11352539 41.58716797 64.11352539 63.34716797 64.11352539 C63.34716797 69.39352539 63.34716797 74.67352539 63.34716797 80.11352539 C54.32394191 80.20400124 45.30101858 80.27734174 36.27744102 80.32077408 C32.08713259 80.34162257 27.89715138 80.36988955 23.70703125 80.4152832 C19.66104555 80.45883959 15.61537402 80.48268309 11.56917191 80.49303436 C10.02781862 80.50040825 8.48648195 80.51480796 6.94526291 80.53644562 C4.78116861 80.5656115 2.61836172 80.56947615 0.45410156 80.56762695 C-0.77611725 80.5765094 -2.00633606 80.58539185 -3.27383423 80.59454346 C-8.43512106 79.8598072 -11.48805091 77.37274822 -14.96533203 73.61352539 C-17.58023022 69.73960215 -17.78082453 66.44089711 -17.82983398 61.8293457 C-17.84266922 60.77434875 -17.85550446 59.71935181 -17.86872864 58.63238525 C-17.87611557 57.49694275 -17.8835025 56.36150024 -17.89111328 55.19165039 C-17.89918503 54.01769714 -17.90725677 52.8437439 -17.91557312 51.63421631 C-17.92940064 49.14946972 -17.94012874 46.66470424 -17.94799805 44.17993164 C-17.9652036 40.39180262 -18.00910282 36.60454805 -18.05322266 32.81665039 C-18.06335068 30.39999013 -18.07186644 27.98332246 -18.07861328 25.56665039 C-18.09612137 24.43930481 -18.11362946 23.31195923 -18.13166809 22.15045166 C-18.11295965 15.32331966 -17.32861173 10.91584125 -13.65283203 5.11352539 C-8.94628992 0.74316486 -6.3458722 -0.01137253 0 0 Z " fill="#FF3131" transform="translate(490.65283203125,457.886474609375)"/>
<path d="M0 0 C11.405625 -0.0825 22.81125 -0.165 34.5625 -0.25 C39.94864624 -0.30462402 39.94864624 -0.30462402 45.44360352 -0.36035156 C49.85534668 -0.37841797 49.85534668 -0.37841797 51.92588806 -0.3817749 C53.36063103 -0.38788535 54.79535447 -0.40188746 56.22996521 -0.42230225 C71.72129796 -0.63157488 71.72129796 -0.63157488 77 4 C82.02356743 10.13151959 81.59794564 16.41174782 81.56640625 24.08984375 C81.57260483 25.34833633 81.57880341 26.60682892 81.58518982 27.90345764 C81.59227919 30.55917304 81.59108853 33.21336593 81.57641602 35.86889648 C81.55923861 39.25284454 81.58272567 42.63509277 81.61790562 46.01885128 C81.6452911 49.27170064 81.6351359 52.52441175 81.62890625 55.77734375 C81.64216446 56.98277328 81.65542267 58.18820282 81.66908264 59.43016052 C81.60072097 65.6373948 81.11586033 70.18808476 77.65757751 75.42189026 C73.24423739 79.62364552 68.80777483 80.37260528 62.89306641 80.34057617 C62.1984902 80.34093778 61.50391399 80.34129938 60.78829002 80.34167194 C58.55907876 80.33944807 56.33063761 80.31667454 54.1015625 80.29296875 C52.71769574 80.28855313 51.33382396 80.28549553 49.94995117 80.28381348 C44.84155728 80.26814009 39.73327092 80.22625618 34.625 80.1875 C23.19875 80.125625 11.7725 80.06375 0 80 C0 53.6 0 27.2 0 0 Z M17 17 C17 32.51 17 48.02 17 64 C32.51 64 48.02 64 64 64 C64 48.49 64 32.98 64 17 C48.49 17 32.98 17 17 17 Z " fill="#FF3131" transform="translate(561,458)"/>
<path d="M0 0 C3.33167298 0.78021397 5.08548209 2.63864563 7.44432068 5.04562378 C7.93316742 5.53330231 8.42201416 6.02098083 8.92567444 6.5234375 C10.52517745 8.1284822 12.09452027 9.75989217 13.6650238 11.39328003 C14.77284266 12.51603132 15.88244976 13.63702071 16.99375916 14.75631714 C19.90515359 17.69816607 22.79171958 20.6632395 25.6736908 23.63388062 C29.1412361 27.19789919 32.6390229 30.73221449 36.13172913 34.27154541 C41.42670776 39.64393992 46.68197018 45.05253584 51.9462738 50.45578003 C52.2762738 33.95578003 52.6062738 17.45578003 52.9462738 0.45578003 C58.5562738 0.45578003 64.1662738 0.45578003 69.9462738 0.45578003 C70.05927946 10.1481882 70.15099217 19.84015817 70.20533466 29.53307629 C70.23141771 34.0340086 70.26679156 38.53446647 70.32347107 43.03512573 C70.37783786 47.37937895 70.40770407 51.72317612 70.42066002 56.0677433 C70.42989161 57.72438041 70.44791926 59.38099282 70.47492409 61.03743553 C70.51127878 63.35996604 70.51621682 65.68061773 70.51390076 68.00338745 C70.53187714 68.68671646 70.54985352 69.37004547 70.56837463 70.07408142 C70.52975073 73.6588892 69.95350066 75.4452502 67.91079712 78.42155457 C64.58562002 80.70325695 62.83734388 81.18324064 58.89254761 80.91156006 C55.56087463 80.13134609 53.80706551 78.27291443 51.44822693 75.86593628 C50.95938019 75.37825775 50.47053345 74.89057922 49.96687317 74.38812256 C48.36737016 72.78307785 46.79802734 71.15166788 45.2275238 69.51828003 C44.11970495 68.39552874 43.01009784 67.27453935 41.89878845 66.15524292 C38.98739401 63.21339399 36.10082803 60.24832056 33.21885681 57.27767944 C29.75131151 53.71366087 26.25352471 50.17934557 22.76081848 46.64001465 C17.46583984 41.26762014 12.21057743 35.85902422 6.9462738 30.45578003 C6.6162738 46.95578003 6.2862738 63.45578003 5.9462738 80.45578003 C0.3362738 80.45578003 -5.2737262 80.45578003 -11.0537262 80.45578003 C-11.16673185 70.76337186 -11.25844457 61.07140189 -11.31278706 51.37848377 C-11.3388701 46.87755146 -11.37424395 42.37709358 -11.43092346 37.87643433 C-11.48529026 33.53218111 -11.51515646 29.18838393 -11.52811241 24.84381676 C-11.53734401 23.18717965 -11.55537165 21.53056724 -11.58237648 19.87412453 C-11.61873117 17.55159402 -11.62366921 15.23094233 -11.62135315 12.90817261 C-11.63932953 12.2248436 -11.65730591 11.54151459 -11.67582703 10.83747864 C-11.63720312 7.25267086 -11.06095305 5.46630986 -9.01824951 2.49000549 C-5.69307242 0.20830311 -3.94479627 -0.27168058 0 0 Z " fill="#FF3131" transform="translate(836.0537261962891,457.5442199707031)"/>
<path d="M0 0 C26.73 0 53.46 0 81 0 C81 5.61 81 11.22 81 17 C70.44 17 59.88 17 49 17 C49 32.51 49 48.02 49 64 C59.56 64 70.12 64 81 64 C81 69.28 81 74.56 81 80 C54.27 80 27.54 80 0 80 C0 74.72 0 69.44 0 64 C10.56 64 21.12 64 32 64 C32 48.49 32 32.98 32 17 C21.44 17 10.88 17 0 17 C0 11.39 0 5.78 0 0 Z " fill="#FF3131" transform="translate(737,458)"/>
<path d="M0 0 C13.921875 -0.1546875 13.921875 -0.1546875 28.125 -0.3125 C31.04617676 -0.35802002 33.96735352 -0.40354004 36.97705078 -0.45043945 C39.29979301 -0.46504641 41.62254805 -0.47778658 43.9453125 -0.48828125 C45.14534912 -0.51386108 46.34538574 -0.53944092 47.58178711 -0.5657959 C57.06701906 -0.57075161 57.06701906 -0.57075161 60.69091797 2.28051758 C65.35727605 7.77624212 65.36484553 11.81099607 65.375 18.8125 C65.39949219 19.68970703 65.42398438 20.56691406 65.44921875 21.47070312 C65.47636836 27.52054199 64.53119622 31.0563253 61 36 C55.58981048 40.16168425 48.56797186 39.7174018 42 40 C47.62390128 47.09010046 47.62390128 47.09010046 55.55859375 50.88671875 C59.50661815 51.20296218 59.50661815 51.20296218 65 51 C65 55.29 65 59.58 65 64 C58.17254459 65.6313389 51.7159957 66.4780261 45 64 C38.99365443 59.595224 34.04940246 54.19408564 29.13671875 48.625 C28.64685989 48.07585434 28.15700104 47.52670868 27.65229797 46.96092224 C26.30543518 45.43271625 24.9918223 43.87539242 23.68041992 42.31665039 C20.69289652 39.31287457 20.69289652 39.31287457 14 39 C14 47.25 14 55.5 14 64 C9.38 64 4.76 64 0 64 C0 42.88 0 21.76 0 0 Z M14 13 C14 16.96 14 20.92 14 25 C26.21 25 38.42 25 51 25 C51 21.04 51 17.08 51 13 C38.79 13 26.58 13 14 13 Z " fill="#FFFFFF" transform="translate(807,561)"/>
<path d="M0 0 C13.921875 -0.1546875 13.921875 -0.1546875 28.125 -0.3125 C31.04617676 -0.35802002 33.96735352 -0.40354004 36.97705078 -0.45043945 C39.29979301 -0.46504641 41.62254805 -0.47778658 43.9453125 -0.48828125 C45.14534912 -0.51386108 46.34538574 -0.53944092 47.58178711 -0.5657959 C57.06701906 -0.57075161 57.06701906 -0.57075161 60.69091797 2.28051758 C65.35727605 7.77624212 65.36484553 11.81099607 65.375 18.8125 C65.39949219 19.68970703 65.42398438 20.56691406 65.44921875 21.47070312 C65.47636836 27.52054199 64.53119622 31.0563253 61 36 C55.58981048 40.16168425 48.56797186 39.7174018 42 40 C47.62390128 47.09010046 47.62390128 47.09010046 55.55859375 50.88671875 C59.50661815 51.20296218 59.50661815 51.20296218 65 51 C65 55.29 65 59.58 65 64 C58.17254459 65.6313389 51.7159957 66.4780261 45 64 C38.99365443 59.595224 34.04940246 54.19408564 29.13671875 48.625 C28.64685989 48.07585434 28.15700104 47.52670868 27.65229797 46.96092224 C26.30543518 45.43271625 24.9918223 43.87539242 23.68041992 42.31665039 C20.69289652 39.31287457 20.69289652 39.31287457 14 39 C14 47.25 14 55.5 14 64 C9.38 64 4.76 64 0 64 C0 42.88 0 21.76 0 0 Z M14 13 C14 16.96 14 20.92 14 25 C26.21 25 38.42 25 51 25 C51 21.04 51 17.08 51 13 C38.79 13 26.58 13 14 13 Z " fill="#FFFFFF" transform="translate(455,561)"/>
<path d="M0 0 C1.12101105 0.00007553 2.24202209 0.00015106 3.39700317 0.00022888 C4.61161224 0.00539017 5.82622131 0.01055145 7.07763672 0.01586914 C8.31778534 0.01728409 9.55793396 0.01869904 10.83566284 0.02015686 C14.13350555 0.02481443 17.43129968 0.033801 20.72912598 0.04486084 C24.09398808 0.05508808 27.4588573 0.0596573 30.82373047 0.06469727 C37.42661661 0.07574271 44.02946097 0.09301568 50.63232422 0.11352539 C50.63232422 4.40352539 50.63232422 8.69352539 50.63232422 13.11352539 C33.80232422 13.11352539 16.97232422 13.11352539 -0.36767578 13.11352539 C-0.36767578 17.07352539 -0.36767578 21.03352539 -0.36767578 25.11352539 C16.46232422 25.11352539 33.29232422 25.11352539 50.63232422 25.11352539 C50.63232422 29.73352539 50.63232422 34.35352539 50.63232422 39.11352539 C33.80232422 39.11352539 16.97232422 39.11352539 -0.36767578 39.11352539 C-0.36767578 43.07352539 -0.36767578 47.03352539 -0.36767578 51.11352539 C16.46232422 51.11352539 33.29232422 51.11352539 50.63232422 51.11352539 C50.63232422 55.40352539 50.63232422 59.69352539 50.63232422 64.11352539 C43.28684519 64.20400838 35.94167229 64.27734535 28.59575367 64.32077408 C25.18447423 64.34162115 21.77359688 64.36988436 18.36254883 64.4152832 C14.43820053 64.46718498 10.51401326 64.48649461 6.58935547 64.50415039 C5.36835648 64.52479553 4.14735748 64.54544067 2.88935852 64.56671143 C1.74855331 64.56701355 0.60774811 64.56731567 -0.56762695 64.56762695 C-1.56912277 64.5765094 -2.57061859 64.58539185 -3.60246277 64.59454346 C-7.151959 63.9770967 -8.7852746 62.57793117 -11.36767578 60.11352539 C-14.92180093 54.78233767 -14.52732756 49.29181205 -14.53564453 43.08618164 C-14.53897293 42.21964462 -14.54230133 41.3531076 -14.54573059 40.46031189 C-14.55078072 38.63223805 -14.55313951 36.80415503 -14.55297852 34.97607422 C-14.55516556 32.18905377 -14.57334304 29.40242905 -14.59228516 26.61547852 C-14.59521942 24.8348809 -14.597204 23.05428142 -14.59814453 21.27368164 C-14.60533005 20.44538345 -14.61251556 19.61708527 -14.61991882 18.76368713 C-14.59596373 12.65749069 -14.07388203 8.03300742 -9.86767578 3.30102539 C-6.30502419 0.18370525 -4.64378953 -0.01041208 0 0 Z " fill="#FFFFFF" transform="translate(750.36767578125,560.886474609375)"/>
<path d="M0 0 C0.94147888 -0.01283524 1.88295776 -0.02567047 2.85296631 -0.03889465 C4.38416107 -0.04997505 4.38416107 -0.04997505 5.94628906 -0.0612793 C6.99463928 -0.06935104 8.0429895 -0.07742279 9.12310791 -0.08573914 C11.34572695 -0.09958739 13.56836733 -0.11030621 15.79101562 -0.11816406 C19.18433183 -0.13535829 22.57666923 -0.1792365 25.96972656 -0.22338867 C28.12857356 -0.2335171 30.28742885 -0.24203273 32.44628906 -0.2487793 C33.96533844 -0.27504143 33.96533844 -0.27504143 35.51507568 -0.30183411 C41.3087735 -0.28406859 44.98626637 0.09286132 49.46191406 4.17700195 C51.52278337 7.41707002 51.70609192 9.96951653 51.68896484 13.77172852 C51.68881378 14.8925885 51.68866272 16.01344849 51.68850708 17.16827393 C51.67818451 18.37256042 51.66786194 19.57684692 51.65722656 20.81762695 C51.65439667 22.05494568 51.65156677 23.2922644 51.64865112 24.56707764 C51.63935607 27.84851737 51.62140112 31.12975949 51.59924316 34.41113281 C51.57874455 37.76275817 51.56981131 41.11439203 51.55957031 44.46606445 C51.53751433 51.03646417 51.50298638 57.6066947 51.46191406 64.17700195 C47.17191406 64.17700195 42.88191406 64.17700195 38.46191406 64.17700195 C38.46191406 55.92700195 38.46191406 47.67700195 38.46191406 39.17700195 C25.92191406 39.17700195 13.38191406 39.17700195 0.46191406 39.17700195 C0.46191406 47.42700195 0.46191406 55.67700195 0.46191406 64.17700195 C-4.15808594 64.17700195 -8.77808594 64.17700195 -13.53808594 64.17700195 C-13.58758204 56.8812763 -13.62385141 49.58564876 -13.64794922 42.28979492 C-13.65799693 39.80865781 -13.67163738 37.3275325 -13.68896484 34.84643555 C-13.7132668 31.27690716 -13.72458152 27.70753557 -13.73339844 24.13793945 C-13.74372101 23.03147064 -13.75404358 21.92500183 -13.76467896 20.78500366 C-13.76566941 13.9620011 -13.76386679 8.68100542 -9.03808594 3.36450195 C-5.75526629 0.49203476 -4.24830425 0.05037627 0 0 Z M0.46191406 13.17700195 C0.46191406 17.13700195 0.46191406 21.09700195 0.46191406 25.17700195 C13.00191406 25.17700195 25.54191406 25.17700195 38.46191406 25.17700195 C38.46191406 21.21700195 38.46191406 17.25700195 38.46191406 13.17700195 C25.92191406 13.17700195 13.38191406 13.17700195 0.46191406 13.17700195 Z " fill="#FFFFFF" transform="translate(538.5380859375,560.822998046875)"/>
<path d="M0 0 C4.62 0 9.24 0 14 0 C14 8.25 14 16.5 14 25 C21.20782474 23.97031075 21.99316321 23.74987076 26.64453125 18.90625 C27.1403923 18.39952759 27.63625336 17.89280518 28.1471405 17.37072754 C29.71711443 15.76079661 31.26504701 14.13156155 32.8125 12.5 C34.38202366 10.87304009 35.95577015 9.25030059 37.53141785 7.62927246 C38.95250762 6.1629089 40.36288623 4.68618749 41.77270508 3.20898438 C44.94715051 0.06063599 44.94715051 0.06063599 47.97119141 -0.11352539 C49.1494751 -0.10567017 49.1494751 -0.10567017 50.3515625 -0.09765625 C51.62773438 -0.09282227 51.62773438 -0.09282227 52.9296875 -0.08789062 C53.81914063 -0.07951172 54.70859375 -0.07113281 55.625 -0.0625 C56.5221875 -0.05798828 57.419375 -0.05347656 58.34375 -0.04882812 C60.56252831 -0.03702611 62.78127243 -0.01909039 65 0 C65 4.29 65 8.58 65 13 C63.205625 12.814375 61.41125 12.62875 59.5625 12.4375 C49.11741922 13.06005448 42.90287381 22.11211091 36.35424805 29.45532227 C35.90734619 29.96506592 35.46044434 30.47480957 35 31 C38.37234601 38.36882467 46.34969426 47.73987771 53.97753906 50.79101562 C57.80889169 51.61973465 61.05514696 51.31026934 65 51 C65 55.29 65 59.58 65 64 C61.99696682 64.19071682 59.00621732 64.32838545 56 64.4375 C54.74123047 64.52547852 54.74123047 64.52547852 53.45703125 64.61523438 C48.57978719 64.7475627 45.66984232 64.24529766 41.91015625 61.02734375 C40.58085251 59.71055542 39.27826253 58.36639118 38 57 C37.30632324 56.28932373 36.61264648 55.57864746 35.89794922 54.84643555 C32.99049166 51.85552135 30.10649357 48.84517669 27.26757812 45.7890625 C26.55923828 45.056875 25.85089844 44.3246875 25.12109375 43.5703125 C24.4964624 42.90789551 23.87183105 42.24547852 23.22827148 41.56298828 C20.48424895 39.3873922 20.48424895 39.3873922 14 39 C14 47.25 14 55.5 14 64 C9.38 64 4.76 64 0 64 C0 42.88 0 21.76 0 0 Z " fill="#FFFFFF" transform="translate(666,561)"/>
<path d="M0 0 C5.61 0 11.22 0 17 0 C17 21.12 17 42.24 17 64 C38.12 64 59.24 64 81 64 C81 69.28 81 74.56 81 80 C71.97677394 80.09047585 62.95385061 80.16381635 53.93027306 80.20724869 C49.73996462 80.22809718 45.54998341 80.25636416 41.35986328 80.30175781 C37.31387758 80.34531419 33.26820605 80.3691577 29.22200394 80.37950897 C27.68065065 80.38688286 26.13931398 80.40128257 24.59809494 80.42292023 C22.43400064 80.45208611 20.27119375 80.45595076 18.10693359 80.45410156 C16.87671478 80.46298401 15.64649597 80.47186646 14.3789978 80.48101807 C9.21771097 79.74628181 6.16478112 77.25922283 2.6875 73.5 C-0.20502179 69.21478253 -0.123127 65.50356627 -0.11352539 60.39550781 C-0.11367142 59.74143448 -0.11381744 59.08736115 -0.1139679 58.41346741 C-0.11327341 56.25998574 -0.10550283 54.10659148 -0.09765625 51.953125 C-0.09579042 50.45668586 -0.09436729 48.96024612 -0.09336853 47.46380615 C-0.08955635 43.53141585 -0.07973717 39.59906268 -0.06866455 35.66668701 C-0.05842249 31.65149437 -0.05386492 27.6362957 -0.04882812 23.62109375 C-0.03811372 15.74737693 -0.02052745 7.87369736 0 0 Z " fill="#FF3131" transform="translate(649,458)"/>
<path d="M0 0 C0.31919939 1.31088682 0.62985947 2.62385248 0.9375 3.9375 C1.11152344 4.66839844 1.28554688 5.39929688 1.46484375 6.15234375 C6.33917116 32.08945822 0.86429442 57.28410711 -7 82 C-11.18056254 81.40944966 -14.12061861 79.98722639 -17.73828125 77.83984375 C-18.80498047 77.21142578 -19.87167969 76.58300781 -20.97070312 75.93554688 C-22.07349609 75.27619141 -23.17628906 74.61683594 -24.3125 73.9375 C-25.43462891 73.27427734 -26.55675781 72.61105469 -27.71289062 71.92773438 C-30.4791287 70.29153398 -33.2412485 68.64878136 -36 67 C-34.62501089 60.75332004 -33.18190464 54.52697209 -31.68359375 48.30859375 C-30.03118658 40.31094304 -29.87418637 32.64310636 -29.9375 24.5 C-29.94201172 23.39140625 -29.94652344 22.2828125 -29.95117188 21.140625 C-29.96286842 18.42702601 -29.97925914 15.71354239 -30 13 C-26.39947679 11.31676785 -22.79821269 9.63516969 -19.1953125 7.95703125 C-16.52034292 6.71089291 -13.84860541 5.45826087 -11.1796875 4.19921875 C-10.02726562 3.65910156 -8.87484375 3.11898437 -7.6875 2.5625 C-6.11548828 1.82193359 -6.11548828 1.82193359 -4.51171875 1.06640625 C-2 0 -2 0 0 0 Z " fill="#FFFFFF" transform="translate(362,554)"/>
<path d="M0 0 C1.14088074 0.00015106 2.28176147 0.00030212 3.45721436 0.00045776 C5.29645477 0.01594162 5.29645477 0.01594162 7.17285156 0.03173828 C8.43236633 0.03456818 9.6918811 0.03739807 10.98956299 0.04031372 C14.33021558 0.04960957 17.67059325 0.06756495 21.01116943 0.08972168 C24.42311228 0.1102187 27.83508358 0.11932366 31.24707031 0.12939453 C37.93595804 0.15145174 44.62467964 0.18598033 51.31347656 0.22705078 C51.31347656 4.51705078 51.31347656 8.80705078 51.31347656 13.22705078 C34.15347656 13.22705078 16.99347656 13.22705078 -0.68652344 13.22705078 C-0.68652344 25.76705078 -0.68652344 38.30705078 -0.68652344 51.22705078 C16.47347656 51.22705078 33.63347656 51.22705078 51.31347656 51.22705078 C51.31347656 55.51705078 51.31347656 59.80705078 51.31347656 64.22705078 C43.96797807 64.29491321 36.62265179 64.34991652 29.27690601 64.3824873 C25.86571895 64.39812218 22.45475807 64.41931992 19.04370117 64.45336914 C15.11933122 64.49229569 11.19505186 64.50677808 7.27050781 64.52001953 C6.04950882 64.53550339 4.82850983 64.55098724 3.57051086 64.56694031 C2.42970566 64.5671669 1.28890045 64.56739349 0.11352539 64.56762695 C-0.88797043 64.57428879 -1.88946625 64.58095062 -2.92131042 64.58781433 C-7.07560796 64.04582385 -9.71971283 62.31760468 -12.47192383 59.21313477 C-14.31956226 54.67072961 -14.13430722 50.30909845 -14.12011719 45.44970703 C-14.12535904 44.40560165 -14.13060089 43.36149628 -14.13600159 42.28575134 C-14.14241541 40.08105355 -14.1410931 37.8763215 -14.13256836 35.67163086 C-14.12406175 32.3047164 -14.1528248 28.93950073 -14.18457031 25.57275391 C-14.18618258 23.42757212 -14.18560431 21.28238734 -14.18261719 19.13720703 C-14.19385117 18.13391861 -14.20508514 17.13063019 -14.21665955 16.09693909 C-14.15946068 10.33858217 -13.73077438 6.67977596 -9.68652344 2.22705078 C-6.42328441 0.14369203 -3.83191132 -0.01695536 0 0 Z " fill="#FFFFFF" transform="translate(609.6865234375,560.77294921875)"/>
<path d="M0 0 C21.45 0 42.9 0 65 0 C65 4.29 65 8.58 65 13 C56.75 13 48.5 13 40 13 C40 29.83 40 46.66 40 64 C35.38 64 30.76 64 26 64 C26 47.17 26 30.34 26 13 C17.42 13 8.84 13 0 13 C0 8.71 0 4.42 0 0 Z " fill="#FFFFFF" transform="translate(384,561)"/>
</svg>
